<svg xmlns="http://www.w3.org/2000/svg" width="600" height="400" viewBox="0 0 600 400"><rect width="100%" height="100%" fill="#DDDDDD"/><path fill="#999999" d="M163.85 155.405v56.86q0 7.44-1.83 13.42-1.83 5.97-5.46 10.18t-9.06 6.47q-5.43 2.26-12.63 2.26-3.29 0-6.46-.4-3.18-.4-6.65-1.25.18-2.44.42-4.88.25-2.44.43-4.88.18-1.34 1.07-2.17.88-.82 2.53-.82 1.04 0 2.71.43 1.68.42 4.24.42 3.48 0 6.16-1 2.69-1.01 4.49-3.2 1.8-2.2 2.71-5.71.92-3.51.92-8.51v-57.22h16.41Zm49.47 72.05v-10.56q-6.53.31-10.98 1.13-4.46.82-7.14 2.11-2.68 1.28-3.84 2.98-1.16 1.71-1.16 3.73 0 3.96 2.35 5.67t6.13 1.71q4.63 0 8.02-1.68 3.38-1.68 6.62-5.09Zm-31.84-32.88-2.69-4.82q10.8-9.88 25.99-9.88 5.49 0 9.82 1.79 4.33 1.8 7.32 5.01 2.99 3.2 4.54 7.65 1.56 4.45 1.56 9.76v39.53h-6.83q-2.14 0-3.3-.64-1.16-.64-1.83-2.59l-1.34-4.52q-2.38 2.14-4.64 3.75-2.25 1.62-4.69 2.72-2.44 1.1-5.22 1.68-2.77.58-6.13.58-3.96 0-7.32-1.07-3.35-1.07-5.79-3.2-2.44-2.14-3.79-5.31-1.34-3.17-1.34-7.38 0-2.38.8-4.73.79-2.35 2.59-4.48 1.8-2.14 4.66-4.03 2.87-1.89 7.05-3.29 4.18-1.41 9.73-2.29 5.55-.89 12.69-1.07v-3.66q0-6.28-2.69-9.3-2.68-3.02-7.74-3.02-3.66 0-6.07.85-2.41.86-4.24 1.93-1.83 1.06-3.33 1.92-1.49.85-3.32.85-1.59 0-2.69-.82-1.09-.83-1.76-1.92Zm102.29-6.77-3.41 5.42q-.61.98-1.28 1.38-.68.39-1.71.39-1.1 0-2.35-.61t-2.9-1.37q-1.65-.76-3.75-1.37-2.1-.61-4.97-.61-4.45 0-6.99 1.89-2.53 1.89-2.53 4.94 0 2.01 1.31 3.39 1.32 1.37 3.48 2.41 2.17 1.03 4.91 1.86 2.75.82 5.58 1.79 2.84.98 5.58 2.23 2.75 1.25 4.92 3.17 2.16 1.93 3.47 4.61 1.31 2.68 1.31 6.47 0 4.51-1.61 8.32-1.62 3.81-4.79 6.59t-7.84 4.33q-4.67 1.56-10.77 1.56-3.23 0-6.31-.58-3.08-.58-5.92-1.62-2.83-1.04-5.24-2.44t-4.24-3.05l3.47-5.73q.68-1.04 1.59-1.59.92-.55 2.32-.55t2.65.79q1.25.8 2.9 1.71 1.65.92 3.87 1.71 2.23.79 5.65.79 2.68 0 4.6-.64 1.92-.64 3.17-1.67 1.25-1.04 1.83-2.41.58-1.38.58-2.84 0-2.2-1.31-3.6t-3.48-2.44q-2.16-1.04-4.94-1.86-2.77-.82-5.67-1.8-2.9-.98-5.67-2.29-2.78-1.31-4.94-3.32-2.17-2.01-3.48-4.94-1.31-2.93-1.31-7.08 0-3.84 1.52-7.32 1.53-3.48 4.49-6.07 2.95-2.59 7.38-4.15 4.42-1.55 10.21-1.55 6.47 0 11.78 2.13 5.3 2.14 8.84 5.62Zm39.71-7.75q6.96 0 12.66 2.26 5.7 2.25 9.76 6.4t6.25 10.13q2.2 5.97 2.2 13.36 0 7.44-2.2 13.41-2.19 5.98-6.25 10.19-4.06 4.21-9.76 6.47t-12.66 2.26q-7.01 0-12.75-2.26-5.73-2.26-9.79-6.47-4.05-4.21-6.28-10.19-2.23-5.97-2.23-13.41 0-7.39 2.23-13.36 2.23-5.98 6.28-10.13 4.06-4.15 9.79-6.4 5.74-2.26 12.75-2.26Zm0 52.89q7.81 0 11.56-5.25 3.75-5.25 3.75-15.37 0-10.13-3.75-15.44-3.75-5.3-11.56-5.3-7.93 0-11.74 5.33-3.81 5.34-3.81 15.41 0 10.06 3.81 15.34 3.81 5.28 11.74 5.28Zm70.09-52.89q6.96 0 12.66 2.26 5.7 2.25 9.76 6.4t6.25 10.13q2.2 5.97 2.2 13.36 0 7.44-2.2 13.41-2.19 5.98-6.25 10.19-4.06 4.21-9.76 6.47t-12.66 2.26q-7.01 0-12.75-2.26-5.73-2.26-9.79-6.47-4.05-4.21-6.28-10.19-2.23-5.97-2.23-13.41 0-7.39 2.23-13.36 2.23-5.98 6.28-10.13 4.06-4.15 9.79-6.4 5.74-2.26 12.75-2.26Zm0 52.89q7.81 0 11.56-5.25 3.75-5.25 3.75-15.37 0-10.13-3.75-15.44-3.75-5.3-11.56-5.3-7.93 0-11.74 5.33-3.81 5.34-3.81 15.41 0 10.06 3.81 15.34 3.81 5.28 11.74 5.28Zm84-45.14-3.42 5.42q-.61.98-1.28 1.38-.67.39-1.71.39-1.09 0-2.34-.61-1.25-.61-2.9-1.37-1.65-.76-3.75-1.37-2.11-.61-4.97-.61-4.46 0-6.99 1.89-2.53 1.89-2.53 4.94 0 2.01 1.31 3.39 1.31 1.37 3.48 2.41 2.16 1.03 4.91 1.86 2.74.82 5.58 1.79 2.84.98 5.58 2.23 2.75 1.25 4.91 3.17 2.17 1.93 3.48 4.61 1.31 2.68 1.31 6.47 0 4.51-1.62 8.32-1.61 3.81-4.78 6.59-3.18 2.78-7.84 4.33-4.67 1.56-10.77 1.56-3.23 0-6.31-.58-3.08-.58-5.92-1.62t-5.25-2.44q-2.41-1.4-4.24-3.05l3.48-5.73q.67-1.04 1.59-1.59.91-.55 2.32-.55 1.4 0 2.65.79 1.25.8 2.9 1.71 1.64.92 3.87 1.71 2.23.79 5.64.79 2.69 0 4.61-.64 1.92-.64 3.17-1.67 1.25-1.04 1.83-2.41.58-1.38.58-2.84 0-2.2-1.31-3.6t-3.48-2.44q-2.16-1.04-4.94-1.86-2.78-.82-5.67-1.8-2.9-.98-5.68-2.29-2.77-1.31-4.94-3.32-2.16-2.01-3.47-4.94-1.32-2.93-1.32-7.08 0-3.84 1.53-7.32 1.52-3.48 4.48-6.07 2.96-2.59 7.38-4.15 4.43-1.55 10.22-1.55 6.47 0 11.77 2.13 5.31 2.14 8.85 5.62Z"/></svg>